<?xml version="1.0" encoding="UTF-8"?>
<svg xmlns="http://www.w3.org/2000/svg" version="1.1" viewBox="0 0 141.7 141.7">
  <defs>
    <style>
      .cls-1 {
        fill: #ff6621;
      }

      .cls-2 {
        fill: #666;
      }
    </style>
  </defs>
  <g>
    <g id="Layer_1">
      <g id="Layer_1-2" data-name="Layer_1">
        <g>
          <g>
            <path class="cls-1" d="M70.9,88.3c-3.9,0-7.1,3.2-7.1,7.1v26.5c0,3.9,3.2,7.1,7.1,7.1s7.1-3.2,7.1-7.1v-26.5c0-3.9-3.2-7.1-7.1-7.1Z"/>
            <path class="cls-1" d="M70.9,12.8c-3.9,0-7.1,3.2-7.1,7.1v26.5c0,3.9,3.2,7.1,7.1,7.1s7.1-3.2,7.1-7.1v-26.5c0-3.9-3.2-7.1-7.1-7.1Z"/>
            <path class="cls-1" d="M121.9,63.8h-26.5c-3.9,0-7.1,3.2-7.1,7.1s3.2,7.1,7.1,7.1h26.5c3.9,0,7.1-3.2,7.1-7.1s-3.2-7.1-7.1-7.1Z"/>
            <path class="cls-1" d="M53.4,70.9c0-3.9-3.2-7.1-7.1-7.1h-26.5c-3.9,0-7.1,3.2-7.1,7.1s3.2,7.1,7.1,7.1h26.5c3.9,0,7.1-3.2,7.1-7.1Z"/>
            <path class="cls-1" d="M93.2,83.2c-1.3-1.3-3.1-2.1-5-2.1s-3.7.7-5,2.1c-2.8,2.8-2.8,7.3,0,10l18.7,18.7c1.4,1.4,3.2,2.1,5,2.1s3.6-.7,5-2.1h0c1.3-1.3,2.1-3.1,2.1-5s-.7-3.7-2.1-5c0,0-18.7-18.7-18.7-18.7Z"/>
            <path class="cls-1" d="M39.8,29.8c-2.8-2.8-7.3-2.8-10,0-1.3,1.3-2.1,3.1-2.1,5s.7,3.7,2.1,5l18.7,18.7c1.4,1.4,3.2,2.1,5,2.1s3.6-.7,5-2.1,2.1-3.1,2.1-5-.7-3.7-2.1-5c0,0-18.7-18.7-18.7-18.7Z"/>
            <path class="cls-1" d="M88.2,60.6c1.9,0,3.7-.7,5-2.1l18.7-18.7c1.3-1.3,2.1-3.1,2.1-5s-.7-3.7-2.1-5h0c-2.8-2.8-7.3-2.8-10,0l-18.7,18.7c-2.8,2.8-2.8,7.3,0,10,1.3,1.3,3.1,2.1,5,2.1Z"/>
            <path class="cls-1" d="M48.5,83.2l-18.7,18.7c-1.3,1.3-2.1,3.1-2.1,5s.7,3.7,2.1,5c1.4,1.4,3.2,2.1,5,2.1s3.6-.7,5-2.1l18.7-18.7c1.3-1.3,2.1-3.1,2.1-5s-.7-3.7-2.1-5c-2.8-2.8-7.3-2.8-10,0Z"/>
          </g>
          <circle class="cls-2" cx="70.9" cy="70.9" r="11.3"/>
        </g>
      </g>
    </g>
  </g>
</svg>
